<svg enable-background="new 0 0 324.349 333.839" height="334" viewBox="0 0 324.349 333.839" width="325" xmlns="http://www.w3.org/2000/svg"><path d="m157.821 319.603c12.449 18.871 41.444 20.096 53.185-3.075 13.364 16.473 35.164 8.328 34.464-9.491 1.253.387 2.526.756 3.822 1.104 17.128 4.611 29.299-10.049 22.6-26.377 0 0-8.995-24.913-19.594-39.383-6.403-8.772-14.54-11.513-21.353-10.275 15.225-19.856 17.242-46.196 13.222-71.107-3.643-22.61-16.63-62.959-24.581-74.046 2.145-.936 4.086-2.304 5.734-4.059 7.585 9.864 19.446 10.424 27.895 4.376 8.605 17.291 27.19 23.614 42.147 19.475 17.866-4.944 25.869-21.832 21.82-37.352 5.993-4.075 8.239-11.559 6.695-18.652-3.928-18.038-30.352-27.614-48.997-20.378-1.639-17.909-22.365-23.43-32.482-10.57-3.913-11.01-16.877-15.963-27.162-10.149-7.988-14.037-28.673-12.379-34.418 2.567-9.077-10.708-25.415-12.619-36.78-5.767-14.13-10.409-36.301-5.691-44.456 13.814-18.013-13.476-43.339-5.242-50.173 16.861-32.703-12.003-64.021 26.05-42.103 59.436 15.761 23.977 49.02 23.438 63.465 3.081 1.952 11.36 11.798 18.446 22.995 28.177-5.685 6.351-7.889 15.223-5.431 23.47-7.016 5.691-9.928 14.317-7.166 23.681-4.967 5.087-7.232 12.737-5.23 20.869 2.881 11.704 23.91 32.746 29.443 37.472-19.682-4.035-35.766 11.37-33.425 32.312-10.446 3.183-16.784 15.848-9.969 31.712 8.569 19.948 30.506 23.993 43.883 15.431 9.066 20.576 36.483 24.97 51.95 6.843z" fill="#fff"/><g fill="#fe4413"><circle clip-rule="evenodd" cx="198.63713908" cy="19.07073391" fill-rule="evenodd" r="7.54002164" stroke-width="1.32467"/><path d="m554.993-563.515c-15.717-6.042-35.453 6.515-33.436 28.561 1.231 13.371 11.182 22.556 22.226 23.868 7.455.884 14.597-.562 21.052-8.136 3.533-4.146 3.44-8.471.374-11.093-1.091-.928-2.646-1.225-4.172-.98-6.079.976-6.075 6.794-15.519 5.672-4.818-.572-8.851-4.844-9.385-10.668-.805-8.836 6.09-15.04 12.289-13.864 4.707.893 4.634 3.808 8.448 5.327 3.702 1.475 5.792.589 7.528-.879 1.973-1.668 2.944-5.323 1.538-8.645-1.585-3.745-6.771-7.559-10.943-9.163z" transform="matrix(.938103 -.500015 .500015 .938103 -204.833 852.84)"/><path d="m349.035-416.441c-13.698-.18-22.358 12.371-22.865 25.974-.495 13.583 6.973 26.741 21.921 27.405 13.764.613 22.339-12.136 22.678-26.09.327-13.879-7.458-27.101-21.734-27.289zm-.195 14.774c2.853.038 4.647 1.939 5.719 4.291 1.059 2.337 1.5 5.116 1.442 7.869-.092 3.352-.894 6.714-2.63 9.167-1.069 1.518-2.586 2.606-4.625 2.515-6.132-.272-8.009-6.524-7.803-12.096.121-3.272 1.004-6.549 2.781-8.966 1.197-1.635 2.881-2.808 5.116-2.78z" transform="matrix(.954543 -.298073 .298073 .954543 -134.585 527.746)"/><path d="m224.347-72.636c-3.998-7.916-10.448-12.387-19.632-10.761-7.801 1.384-13.094 7.363-15.418 16.225-2.563 9.78-2.147 20.832 1.333 31.359 1.599 4.838 6.034 8.636 10.495 7.161 3.871-1.28 5.446-6.09 3.633-11.554-2.632-7.934-3.599-16.062-1.67-23.433.689-2.598 1.915-4.803 4.208-5.209 2.398-.425 4.267 1.785 5.242 4.962 1.659 5.409 1.979 13.27 2.291 21.564.296 7.843 3.816 10.528 7.369 10.503 5.443-.039 6.984-5.056 7.612-9.241 1.282-8.553 3.89-26.736 10.623-24.954 4.61 1.22 3.593 14.804-1.528 25.139-2.399 4.84-2.792 11.073.664 13.239 3.443 2.168 8.252.415 11.486-4.656 5.796-9.086 8.286-23.152 5.698-34.332-1.624-6.989-5.662-11.889-12.108-13.585-8.827-2.327-15.452.917-20.298 7.573z" transform="matrix(.99894 -.0460214 .0460214 .99894 -77.4198 105.886)"/><path d="m46.082 410.703c-1.11 9.926.733 18.51 3.648 24.376 2.386 4.801 7.803 6.828 11.294 4.725 3.492-2.105 3.741-7.124 1.444-12.056-2.481-5.326-2.42-8.217-1.684-15.62.534-5.368-1.837-9.527-5.887-10.022-4.037-.495-8.019 1.479-8.815 8.597z" transform="matrix(.96905 .246863 -.246863 .96905 241.836 -372.061)"/><path d="m109.337 447.761c-5.924-8.216-14.073-19.945-18.091-27.519-1.386-2.607-4.183-4.138-7.117-3.895-2.934.241-5.438 2.211-6.38 5.009-3.105 9.26-5.782 32.326-.765 47.328 2.26 6.757 6.173 8.307 10.031 7.011 3.858-1.294 5.143-5.664 3.697-11.381-1.869-7.396-1.641-11.504-1.513-18.815 5.295 8.123 10.835 15.804 14.584 20.02 2.924 3.293 5.615 4.916 6.987 5.333 2.966.896 8.999-.062 11.2-7.978 2.397-8.583 3.011-30.092 2.339-40.379-.38-5.817-3.734-9.612-7.799-9.291-4.052.323-6.879 3.354-6.596 10.718.24 6.202.177 14.576-.577 23.839z" transform="matrix(.966268 .267097 -.26643 .963854 255.563 -404.898)"/><path d="m144.985 469.985c10.414-8.139 21.358 4.039 26.794-3.181 2.177-2.891.458-10.647-10.007-13.183-17.266-4.191-33.438 4.467-36.121 23.752-2.19 15.599 6.442 25.994 14.84 30.299 7.479 3.834 17.404 3.079 23.974-1.097 7.683-4.882 10.795-12.632 8.481-21.163-2.252-8.299-7.786-11.897-15.744-11.617-4.466.157-9.986 1.986-10.224 6.388-.243 4.485 3.249 7.286 7.57 7.781 3.573.409 4.204 1.645 4.53 3.04.365 1.558-1.051 3.317-3.595 4.194-9.366 3.232-14.624-4.21-15.264-11.787-.434-5.141 1.151-10.602 4.766-13.426z" transform="matrix(.956486 .291779 -.291779 .956486 282.782 -436.907)"/></g><g transform="translate(5.64173 -238.754)"><g clip-rule="evenodd" fill-rule="evenodd"><path d="m1416.308 2477.61c-4.768 5.549-15.146 17.123-25.906 25.846-11.783 9.536-22.79.865-17.826-12.891 5.832-16.155 19.998-41.755 30.536-55.781 15.514-20.658 35.481-34.71 58.313-32.594 27.071 2.49 49.846 26.633 55.137 48.155 7.181 29.213 5.199 45.717-5.414 52.052-5.647 3.381-12.124-.129-12.124-.129s-.337 10.348-8.063 13.458c-8.459 3.394-14.59-.877-14.59-.877s-1.325 8.013-7.998 10.478c-7.012 2.593-12.016-2.323-12.016-2.323s2.117 27.162 2.335 43.407c.244 18.233-16.883 16.194-20.927 4.503-6.863-19.845-17.678-60.684-21.457-93.304z" fill="#68b2fd" transform="matrix(-.752958 .781655 -.781655 -.752958 3186.77 1138.13)"/><g transform="matrix(1.00466 .0161995 -.016099 .998426 -1.19461 210.957)"><path d="m159.956 153.717c29.575.63 47.162 24.275 44.723 50.096s-15.626 47.842-48.736 47.553c-34.039-.296-46.362-30.795-44.452-49.882 2.645-26.476 14.929-48.48 48.465-47.767z" fill="#fff"/><g fill="#5138d1"><path d="m146.399 157.454c6.723 1.452 14.981 3.987 18.374 4.929 0 0 11.716-14.777 15.536-18.942 6.026-6.595 10.374-2.774 5.987 4.147-4.529 7.134-7.097 11.714-12.761 20.11-1.832 2.723-4.981 5.257-10.374 3.456-7.277-2.425-15.136-5.863-19.265-8.065-6-3.2-6.568-7.594 2.503-5.635z" transform="matrix(.999601 -.0284275 .0280758 .999601 -16.4036 45.0988)"/><path d="m147.723 191.674c5.781.486 4.361 15.147-1.277 14.501-5.588-.639-4.607-14.996 1.277-14.501z" transform="matrix(.999795 .0179038 -.0166129 .999908 14.5136 -26.0012)"/><path d="m133.971 363.789c-.297 6.048 13.936 6.093 14.258.53.361-6.225-13.923-7.087-14.258-.53z" transform="matrix(.993562 .114001 -.112591 .993562 84.81 -169.975)"/><path d="m154.162 240.499c6.349.352 6.787-14.932.684-14.709-6.103.224-6.452 14.389-.684 14.709z"/><path d="m169.003 147.238c.196-2.235.361-4.353.479-6.134 1.642.059 3.027.104 3.903.128 3.569.097 3.53-5.283 3.818-8.877.301-3.594-1.454-5.817-4.889-6.084-3.435-.266-12.469-.94-17.371-1.085-6.985-.208-5.774 5.084-6.195 9.74-.434 4.96 1.556 5.104 6.666 5.491-.12 2.252-.15 4.124-.199 5.73-31.371.762-50.957 23.938-52.577 52.544-1.729 30.301 16.362 57.254 50.71 60.427 32.839 3.032 56.698-18.272 59.756-52.299 3.138-34.776-21.238-55.075-44.101-59.581zm29.134 58.462c-2.387 25.805-21.02 40.62-42.929 39.568-22.284-1.068-38.478-22.292-37.188-45.043 1.355-23.598 17.407-42.799 45.149-39.643 17.987 2.046 37.562 17.175 34.968 45.118z"/></g></g><path d="m101.673 397.786c-1.484-1.483-3.226-3.923-5.045-5.99-10.116-11.432 4.542-28.83 16.684-18.47 8.387 7.156 12.516 12.142 19.794 22.549 5.445 7.769 7.174 14.742 3.858 18.533-4.039 4.61-11.832 3.265-17.445-.4 5.51 5.937 10.194 13.212 7.032 18.724-2.826 4.924-10.361 5.489-14.465 2.991 1.316 1.169 10.581 10.872 6.594 16.954-3.136 4.769-11.097 4.267-16.568 1.008-5.019-2.982-8.362-5.81-13.845-11.168-14.31-13.99-4.052-26.038 4.103-22.617-5.2-5.566-8.607-13.187-4.503-18.705 3.316-4.47 9.742-6.431 13.806-3.409z" fill="#68b2fd"/></g><path d="m1496.023 2481.989c.205.213.339.497.358.814.327 5.228.846 15.082.645 22.324-.02.712-.612 1.273-1.325 1.253-.712-.021-1.275-.616-1.253-1.325.197-7.141-.317-16.906-.64-22.091-.046-.712.495-1.323 1.207-1.368.392-.023.755.131 1.008.393z" fill="#161616" transform="matrix(-.752958 .781655 -.781655 -.752958 3186.02 1114.87)"/><path d="m1480.349 2491.973c4.786 4.969 6.049 14.406 5.881 17.637-.036.711-.644 1.257-1.355 1.221-.71-.037-1.261-.644-1.221-1.356.248-4.744-2.412-17.476-9.853-18.041-.709-.051-1.246-.672-1.188-1.383.053-.711.673-1.243 1.383-1.188 2.601.197 4.69 1.384 6.353 3.11z" fill="#161616" transform="matrix(-.752958 .781655 -.781655 -.752958 3173.82 1176.83)"/><path d="m1465.333 2496.438c.165.172.285.39.335.642 1.257 6.316 2.085 22.693 2.119 23.387.035.71-.513 1.317-1.224 1.352-.713.036-1.316-.511-1.353-1.224-.008-.167-.852-16.88-2.073-23.012-.139-.698.316-1.376 1.013-1.517.449-.089.889.066 1.183.372z" fill="#161616" transform="matrix(-.752958 .781655 -.781655 -.752958 3166.77 1171.45)"/></g><path d="m9.181 277.346c-6.235-.688-22.818.89-25.334 28.237-1.48 15.976 5.163 32.57 21.387 32.747 18.933.206 23.281-20.56 23.721-29.921.867-17.835-5.5-29.488-19.774-31.063zm-1.7 15.43c5.936.213 6.014 9.44 5.813 13.943-.176 3.859-1.235 15.905-7.497 15.509-6.581-.416-6.767-11.633-6.411-15.785.527-6.065 2.574-13.867 8.095-13.667z" fill="#fe4413" transform="matrix(.927732 .165973 -.165973 .927732 181.433 4.28051)"/><path d="m240.875-160.34c-14.711-1.466-23.435 12.06-24.146 26.484-.795 16.15 6.183 26.997 19.631 28.032 13.974 1.078 22.133-14.747 22.929-29.142.822-14.701-6.34-24.171-18.414-25.374zm-1.424 16.293c4.482.431 5.556 5.02 4.966 10.934-.4 4.081-2.069 12.304-7.212 11.612-4.685-.63-5.709-6.201-5.08-11.872.637-5.809 3.163-11.076 7.326-10.674z" fill="#fe4413" transform="matrix(.989365 -.145456 .145456 .989365 -32.5777 461.195)"/><path d="m31.843 94.453c1.374-6.744-.417-12.012-3.315-16.017-6.691-9.227-22.548-12.296-30.254-1.525-5.613 7.86-4.182 17.767-1.952 23.702 1.026 2.735 3.97 9.886 5.059 14.321.926 3.801-2.143 5.729-4.745 3.949-2.106-1.447-2.948-5.81-3.326-8.234-.459-3.065-2.476-6.647-6.572-7.347-3.668-.626-6.96 1.932-7.815 6.142-1.5 7.326 1.989 16.765 7.533 21.707 6.122 5.452 18.932 8.1 26.174-.015 6.411-7.168 5.694-15.932 3.328-22.403-3.501-9.592-8.036-15.524-5.456-19.79 1.873-3.111 7.068-1.31 6.737 3.061-.331 4.388 1.449 8.654 6.302 9.704 3.737.811 7.306-2.395 8.302-7.255z" fill="#fe4413" transform="matrix(.908955 -.077714 .077714 .908955 81.5146 181.512)"/><path d="m230.788 256.185c3.714 5.724 5.545 10.612 8.986 17.934-8.727-4.321-13.459-7.699-21.069-13.496-3.984-3.042-8.182-3.01-10.738-1.28-2.543 1.728-3.522 5.245-2.493 10.639 2.349 12.258 6.637 24.326 12.563 34.822 3.844 6.793 9.579 9.18 13.584 6.532 3.402-2.244 2.956-7.571-.3-13.611-2.544-4.711-3.499-7.665-6.185-13.917 8.221 4.722 17.012 8.915 27.197 11.652 2.84.765 6.35.794 8.47-1.686 2.251-2.633 1.388-6.855.278-9.584 0 0-8.605-23.605-18.072-36.53-4.003-5.485-9.054-7.429-12.818-4.372-3.672 2.977-2.32 8.401.597 12.897z" fill="#fe4413" transform="translate(-.038196 1.53003)"/></svg>